<svg width="101" height="100" viewBox="0 0 101 100" fill="none" xmlns="http://www.w3.org/2000/svg">
<g clip-path="url(#clip0)">
<path fill-rule="evenodd" clip-rule="evenodd" d="M51.1096 60.5701V78.3851L64.9949 74.6537V56.8386L51.1096 60.5701ZM80.1041 52.7799L66.2139 56.5115V74.3265L80.1041 70.5304V52.7799ZM80.1041 33.7013L66.2139 37.4328V55.2478L80.1041 51.4568V33.7013ZM64.9976 37.4328L51.1098 33.7013V51.5213L64.9976 55.2527V37.4328ZM65.6047 29.4844L52.9631 32.8789L52.8441 32.9086L65.6047 36.3377L78.3674 32.9086L65.6047 29.4844ZM49.8906 33.7013L36.0004 37.4328V55.2527L49.8906 51.5213V33.7013ZM48.1562 32.9086L48.0127 32.8738L35.3935 29.4844L22.6305 32.9086L35.3935 36.3377L48.1562 32.9086ZM36.0027 56.8386V74.6537L49.8906 78.3851V60.5701L36.0027 56.8386ZM20.8961 51.4322L34.7836 55.2478V37.4328L20.8961 33.7013V51.4322ZM20.8961 52.7799V70.5058L34.7836 74.3267V56.5117L20.8961 52.7799ZM63.2605 28.8549L50.5 25.4258L37.7373 28.8551L50.5 32.2793L63.2605 28.8549ZM49.2812 6.29744C49.2812 5.96541 49.4197 5.65837 49.6381 5.43513C49.8609 5.21208 50.1631 5.07849 50.5 5.07849C50.832 5.07849 51.1367 5.21228 51.3576 5.43513C51.5807 5.65837 51.7191 5.96541 51.7191 6.29744V11.0398C51.7191 11.3769 51.5806 11.6789 51.3625 11.8972C51.1369 12.1201 50.8322 12.259 50.5002 12.259C50.1633 12.259 49.8611 12.1201 49.6406 11.9023C49.4199 11.6791 49.2814 11.3771 49.2814 11.04V6.29744H49.2812ZM71.301 11.5406C71.467 11.2529 71.7394 11.0549 72.0369 10.9754C72.3367 10.8961 72.6684 10.9308 72.9586 11.0992C73.2484 11.2677 73.4441 11.5406 73.5238 11.8377C73.6055 12.1349 73.573 12.467 73.4021 12.7594L71.031 16.8676C70.8625 17.1599 70.5898 17.3531 70.2926 17.4326C69.9926 17.5117 69.6611 17.482 69.3709 17.3135C69.081 17.1453 68.8853 16.8726 68.806 16.5754C68.724 16.2732 68.7564 15.9459 68.9273 15.6537L71.301 11.5406ZM87.7408 27.0957C88.0307 26.9271 88.3627 26.8924 88.6625 26.9717C88.9598 27.051 89.2324 27.2494 89.3984 27.5416C89.5693 27.8291 89.6015 28.1611 89.5201 28.4584C89.4431 28.7607 89.2449 29.033 88.9549 29.1965L84.8469 31.5701C84.5547 31.7386 84.2224 31.7734 83.925 31.6941C83.6279 31.615 83.3553 31.4168 83.1867 31.1291C83.0182 30.8367 82.9836 30.5049 83.0627 30.2074C83.1422 29.9101 83.3402 29.6375 83.6303 29.4689L87.7408 27.0957ZM94.2029 48.7808C94.5346 48.7808 94.842 48.9197 95.0601 49.1379C95.2834 49.3609 95.4219 49.6681 95.4219 50C95.4219 50.332 95.2834 50.6392 95.065 50.8574C94.8422 51.0804 94.5348 51.2193 94.2031 51.2193H89.458C89.1236 51.2193 88.8213 51.0804 88.5982 50.8625C88.3754 50.6394 88.2391 50.3322 88.2391 50.0002C88.2391 49.6683 88.3754 49.3611 88.5957 49.1381C88.8213 48.9199 89.1236 48.781 89.458 48.781H94.2029V48.7808ZM88.9549 70.798C89.2447 70.9666 89.4431 71.2392 89.5201 71.5365C89.6015 71.8338 89.5693 72.166 89.4012 72.4582C89.2326 72.7508 88.9599 72.9439 88.6627 73.0234C88.3629 73.1025 88.031 73.0728 87.741 72.9043L83.6305 70.5308C83.3404 70.3623 83.1424 70.0898 83.0654 69.7926C82.9836 69.4953 83.0182 69.1631 83.1867 68.8707C83.3553 68.5834 83.6279 68.3851 83.925 68.3056C84.2223 68.2265 84.5547 68.256 84.8469 68.4246L88.9549 70.798ZM73.4019 87.2406C73.5728 87.5281 73.6053 87.865 73.5236 88.1625C73.4441 88.4597 73.2484 88.7322 72.9584 88.9008C72.666 89.0691 72.3365 89.099 72.0367 89.0197C71.7394 88.9404 71.4668 88.747 71.3008 88.4547L68.9271 84.3465C68.7562 84.0543 68.7238 83.7222 68.8058 83.4248C68.8849 83.1275 69.0807 82.8549 69.3707 82.6863C69.6607 82.5179 69.9924 82.4832 70.2924 82.5625C70.5896 82.6418 70.8623 82.84 71.0283 83.1324L73.4019 87.2406ZM51.7189 93.7025C51.7189 94.0345 51.5805 94.3418 51.3623 94.5599C51.1367 94.7832 50.832 94.9218 50.5 94.9218C50.1631 94.9218 49.8609 94.7832 49.6404 94.565C49.4197 94.342 49.2812 94.0347 49.2812 93.7027V88.9554C49.2812 88.6234 49.4197 88.3211 49.6381 88.098C49.8609 87.875 50.1631 87.7412 50.5 87.7412C50.832 87.7412 51.1367 87.8752 51.3576 88.098C51.5807 88.3211 51.7191 88.6232 51.7191 88.9554V93.7025H51.7189ZM29.6969 88.4549C29.531 88.747 29.2582 88.9404 28.9611 89.0199C28.6611 89.099 28.3291 89.0693 28.0391 88.9009C27.7496 88.7324 27.551 88.4599 27.4742 88.1627C27.3928 87.8654 27.4273 87.5332 27.5955 87.2408L29.9691 83.1277C30.1353 82.8402 30.4078 82.6422 30.7078 82.5627C31.0049 82.4834 31.3371 82.5179 31.6293 82.6865C31.9168 82.8551 32.115 83.1277 32.1941 83.425C32.2736 83.7222 32.2391 84.0545 32.0703 84.3467L29.6969 88.4549ZM13.2596 72.9043C12.9672 73.0728 12.6351 73.1027 12.3381 73.0234C12.0381 72.9441 11.7682 72.7508 11.5994 72.4582C11.4312 72.166 11.3965 71.834 11.4758 71.5365C11.5551 71.239 11.7533 70.9666 12.043 70.798L16.1535 68.4246C16.4433 68.256 16.7756 68.2263 17.0754 68.3056C17.3724 68.3849 17.6451 68.5834 17.8113 68.8707C17.9822 69.1631 18.0146 69.4951 17.9326 69.7926C17.8535 70.0898 17.6578 70.3623 17.3678 70.5308L13.2596 72.9043ZM6.7951 51.2191C6.46053 51.2191 6.15819 51.0802 5.93553 50.8623C5.71483 50.6392 5.57831 50.332 5.57831 50C5.57831 49.6681 5.71464 49.3609 5.93553 49.1379C6.15819 48.9197 6.46053 48.7808 6.7951 48.7808H11.54C11.8721 48.7808 12.1791 48.9197 12.3996 49.1379C12.6203 49.3609 12.7592 49.6681 12.7592 50C12.7592 50.332 12.6203 50.6392 12.4023 50.8574C12.1791 51.0804 11.8721 51.2193 11.54 51.2193H6.7951V51.2191ZM12.043 29.1967C11.7533 29.0332 11.5549 28.7609 11.4781 28.4586C11.3967 28.1613 11.4312 27.8291 11.5994 27.5367C11.7682 27.2494 12.0381 27.0511 12.3381 26.9717C12.6351 26.8924 12.9674 26.9269 13.2596 27.0957L17.368 29.4691C17.6578 29.6377 17.8535 29.9103 17.9328 30.2076C18.0146 30.5049 17.9824 30.8369 17.8115 31.1293C17.6453 31.417 17.3728 31.615 17.0756 31.6943C16.7732 31.7736 16.4435 31.739 16.1537 31.5703L12.043 29.1967ZM27.5957 12.7594C27.4275 12.467 27.3928 12.1351 27.4721 11.8377C27.5512 11.5406 27.7496 11.2677 28.0392 11.0992C28.3293 10.931 28.6613 10.8961 28.9613 10.9754C29.2584 11.0547 29.5312 11.2529 29.6971 11.5406L32.0707 15.6537C32.2394 15.941 32.274 16.2732 32.1945 16.5754C32.1154 16.8726 31.9172 17.1453 31.6273 17.309C31.3375 17.4822 31.0053 17.5119 30.7082 17.4328C30.4082 17.3535 30.1357 17.1601 29.9695 16.8677L27.5957 12.7594ZM37.7373 56.0459L50.5 59.4699L63.2605 56.0459L50.5 52.6164L37.7373 56.0459Z" fill="#FFA500"/>
</g>
<defs>
<clipPath id="clip0">
<rect width="100" height="100" fill="white" transform="translate(0.5)"/>
</clipPath>
</defs>
</svg>
