<svg width="259" height="260" viewBox="0 0 259 260" fill="none" xmlns="http://www.w3.org/2000/svg">
<path d="M197.229 259.64H128.321C126.509 259.63 124.737 259.11 123.207 258.141C121.676 257.172 120.449 255.792 119.665 254.159C118.881 252.526 118.573 250.705 118.774 248.905C118.976 247.104 119.68 245.397 120.805 243.978C123.836 240.17 125.476 235.442 125.455 230.576C125.357 224.904 123.035 219.498 118.99 215.522C114.944 211.545 109.499 209.317 103.826 209.317C98.1537 209.317 92.7081 211.545 88.6626 215.522C84.6171 219.498 82.2953 224.904 82.1974 230.576C82.176 235.442 83.8164 240.17 86.8471 243.978C87.9768 245.402 88.6815 247.117 88.8802 248.924C89.0789 250.731 88.7636 252.558 87.9705 254.194C87.1774 255.83 85.9387 257.209 84.3968 258.172C82.8549 259.136 81.0724 259.644 79.2543 259.64H10.346C7.78396 259.64 5.32689 258.622 3.51528 256.81C1.70367 254.999 0.685913 252.542 0.685913 249.98V161.146C0.685913 159.352 1.18548 157.593 2.12863 156.067C3.07179 154.541 4.42127 153.308 6.02586 152.506C7.63045 151.703 9.42675 151.364 11.2135 151.525C13.0002 151.686 14.7068 152.341 16.142 153.418C19.3548 155.833 23.177 157.305 27.1798 157.669C31.1826 158.034 35.2077 157.275 38.8037 155.48C42.3997 153.684 45.4243 150.922 47.5383 147.504C49.6524 144.086 50.7722 140.146 50.7722 136.126C50.7722 132.107 49.6524 128.167 47.5383 124.749C45.4243 121.33 42.3997 118.568 38.8037 116.773C35.2077 114.977 31.1826 114.219 27.1798 114.583C23.177 114.948 19.3548 116.42 16.142 118.835C14.7068 119.911 13.0002 120.567 11.2135 120.728C9.42675 120.889 7.63045 120.549 6.02586 119.747C4.42127 118.945 3.07179 117.711 2.12863 116.185C1.18548 114.659 0.685913 112.901 0.685913 111.107V63.1286C0.685913 60.5666 1.70367 58.1095 3.51528 56.2979C5.32689 54.4863 7.78396 53.4685 10.346 53.4685H64.5453C62.7135 47.3542 62.3362 40.8963 63.4437 34.6103C64.5511 28.3243 67.1126 22.3841 70.9237 17.2639C74.7347 12.1437 79.6899 7.98525 85.3936 5.12036C91.0974 2.25547 97.3919 0.763489 103.775 0.763489C110.158 0.763489 116.452 2.25547 122.156 5.12036C127.86 7.98525 132.815 12.1437 136.626 17.2639C140.437 22.3841 142.998 28.3243 144.106 34.6103C145.213 40.8963 144.836 47.3542 143.004 53.4685H197.203C199.765 53.4685 202.223 54.4863 204.034 56.2979C205.846 58.1095 206.864 60.5666 206.864 63.1286V96.7391C212.955 95.0126 219.364 94.722 225.586 95.89C231.809 97.0581 237.676 99.6531 242.727 103.471C247.777 107.289 251.874 112.226 254.694 117.895C257.515 123.563 258.983 129.808 258.983 136.139C258.983 142.471 257.515 148.716 254.694 154.384C251.874 160.052 247.777 164.989 242.727 168.807C237.676 172.625 231.809 175.22 225.586 176.388C219.364 177.556 212.955 177.266 206.864 175.539V249.98C206.864 252.537 205.849 254.99 204.043 256.801C202.237 258.612 199.787 259.633 197.229 259.64ZM143.571 240.32H187.569V159.484C187.569 157.62 188.109 155.795 189.123 154.23C190.138 152.665 191.583 151.427 193.286 150.666C194.988 149.905 196.874 149.653 198.717 149.94C200.559 150.227 202.279 151.041 203.669 152.284C206.784 155.062 210.635 156.879 214.76 157.517C218.884 158.155 223.104 157.586 226.913 155.88C230.721 154.173 233.954 151.402 236.223 147.899C238.491 144.396 239.699 140.312 239.699 136.139C239.699 131.966 238.491 127.882 236.223 124.379C233.954 120.877 230.721 118.105 226.913 116.399C223.104 114.692 218.884 114.123 214.76 114.761C210.635 115.399 206.784 117.217 203.669 119.994C202.279 121.237 200.559 122.052 198.717 122.339C196.874 122.626 194.988 122.374 193.286 121.612C191.583 120.851 190.138 119.613 189.123 118.049C188.109 116.484 187.569 114.659 187.569 112.794V72.7886H126.601C124.717 72.7883 122.873 72.2366 121.298 71.2015C119.723 70.1665 118.485 68.6933 117.737 66.9635C116.989 65.2336 116.763 63.3227 117.087 61.4661C117.412 59.6095 118.272 57.8883 119.562 56.5147C122.457 53.4401 124.389 49.5854 125.12 45.426C125.85 41.2665 125.347 36.9843 123.672 33.1075C121.998 29.2306 119.225 25.9287 115.696 23.609C112.167 21.2892 108.036 20.0531 103.813 20.0531C99.5903 20.0531 95.4596 21.2892 91.9308 23.609C88.4019 25.9287 85.6292 29.2306 83.9546 33.1075C82.2801 36.9843 81.7769 41.2665 82.5072 45.426C83.2375 49.5854 85.1693 53.4401 88.0643 56.5147C89.3547 57.8883 90.2151 59.6095 90.5394 61.4661C90.8638 63.3227 90.6379 65.2336 89.8897 66.9635C89.1415 68.6933 87.9036 70.1665 86.3286 71.2015C84.7535 72.2366 82.91 72.7883 81.0253 72.7886H20.0318V96.2046C23.0329 95.5275 26.1 95.1863 29.1766 95.1871C34.939 95.1933 40.6352 96.4156 45.8929 98.774C51.1506 101.132 55.8513 104.574 59.6879 108.873C63.5245 113.173 66.4105 118.234 68.1573 123.725C69.9042 129.216 70.4724 135.014 69.825 140.74C69.1776 146.466 67.3291 151.991 64.4003 156.954C61.4715 161.916 57.5284 166.205 52.8287 169.539C48.1289 172.873 42.7784 175.178 37.1269 176.303C31.4754 177.428 25.6501 177.348 20.0318 176.067V240.32H64.0301C62.5492 234.29 62.4589 228.002 63.7659 221.932C65.0729 215.862 67.743 210.169 71.5743 205.283C75.4055 200.397 80.2977 196.446 85.8807 193.729C91.4637 191.012 97.5915 189.601 103.8 189.601C110.01 189.601 116.137 191.012 121.72 193.729C127.303 196.446 132.195 200.397 136.027 205.283C139.858 210.169 142.528 215.862 143.835 221.932C145.142 228.002 145.052 234.29 143.571 240.32Z" fill="url(#paint0_linear)"/>
<defs>
<linearGradient id="paint0_linear" x1="-16.3802" y1="16.5416" x2="213.207" y2="322.121" gradientUnits="userSpaceOnUse">
<stop stop-color="#FFA500"/>
<stop offset="1" stop-color="#FF4D00"/>
</linearGradient>
</defs>
</svg>
