<svg width="285" height="286" viewBox="0 0 285 286" fill="none" xmlns="http://www.w3.org/2000/svg">
<path d="M216.881 285.376H141.162C139.171 285.365 137.223 284.794 135.542 283.729C133.86 282.664 132.511 281.148 131.65 279.353C130.789 277.559 130.45 275.558 130.671 273.58C130.893 271.601 131.666 269.725 132.903 268.166C136.233 263.982 138.036 258.786 138.012 253.439C137.905 247.207 135.354 241.266 130.908 236.897C126.463 232.527 120.479 230.079 114.246 230.079C108.012 230.079 102.028 232.527 97.583 236.897C93.1375 241.266 90.5862 247.207 90.4787 253.439C90.4552 258.786 92.2577 263.982 95.588 268.166C96.8294 269.731 97.6037 271.615 97.8221 273.601C98.0405 275.587 97.694 277.594 96.8225 279.392C95.9509 281.189 94.5898 282.705 92.8955 283.763C91.2012 284.822 89.2425 285.381 87.2447 285.376H11.5247C8.70948 285.376 6.00952 284.258 4.01884 282.267C2.02815 280.276 0.90979 277.576 0.90979 274.761L0.90979 177.146C0.90979 175.175 1.45874 173.242 2.49512 171.565C3.53151 169.888 5.01438 168.533 6.77759 167.652C8.54079 166.77 10.5147 166.397 12.478 166.574C14.4414 166.751 16.3166 167.471 17.8937 168.654C21.4241 171.308 25.6241 172.926 30.0226 173.326C34.4211 173.726 38.8441 172.893 42.7955 170.92C46.747 168.947 50.0706 165.912 52.3936 162.156C54.7166 158.399 55.9471 154.07 55.9471 149.653C55.9471 145.237 54.7166 140.907 52.3936 137.151C50.0706 133.394 46.747 130.36 42.7955 128.387C38.8441 126.414 34.4211 125.58 30.0226 125.981C25.6241 126.381 21.4241 127.999 17.8937 130.652C16.3166 131.835 14.4414 132.556 12.478 132.733C10.5147 132.91 8.54079 132.536 6.77759 131.655C5.01438 130.773 3.53151 129.418 2.49512 127.741C1.45874 126.064 0.90979 124.132 0.90979 122.161L0.90979 69.4396C0.90979 66.6244 2.02815 63.9244 4.01884 61.9337C6.00952 59.9431 8.70948 58.8247 11.5247 58.8247L71.0816 58.8247C69.0688 52.106 68.6542 45.0097 69.8712 38.1023C71.0881 31.1949 73.9028 24.6676 78.0906 19.0413C82.2783 13.415 87.7233 8.84542 93.9909 5.69734C100.258 2.54925 107.175 0.90979 114.189 0.90979C121.203 0.90979 128.119 2.54925 134.387 5.69734C140.655 8.84542 146.1 13.415 150.287 19.0413C154.475 24.6676 157.29 31.1949 158.507 38.1023C159.724 45.0097 159.309 52.106 157.296 58.8247L216.853 58.8247C219.668 58.8247 222.368 59.9431 224.359 61.9337C226.35 63.9244 227.468 66.6244 227.468 69.4396V106.373C234.162 104.475 241.204 104.156 248.042 105.44C254.879 106.723 261.326 109.575 266.876 113.77C272.426 117.965 276.928 123.391 280.027 129.619C283.127 135.848 284.74 142.71 284.74 149.667C284.74 156.625 283.127 163.487 280.027 169.716C276.928 175.944 272.426 181.369 266.876 185.565C261.326 189.76 254.879 192.612 248.042 193.895C241.204 195.179 234.162 194.859 227.468 192.962V274.761C227.468 277.571 226.354 280.267 224.369 282.257C222.384 284.247 219.692 285.368 216.881 285.376ZM157.919 264.146H206.267V175.32C206.267 173.271 206.86 171.266 207.974 169.546C209.089 167.827 210.677 166.467 212.548 165.63C214.419 164.794 216.491 164.517 218.516 164.832C220.541 165.148 222.431 166.042 223.958 167.408C227.381 170.46 231.613 172.457 236.145 173.158C240.676 173.859 245.314 173.235 249.499 171.359C253.684 169.484 257.237 166.439 259.73 162.59C262.222 158.741 263.549 154.253 263.549 149.667C263.549 145.082 262.222 140.594 259.73 136.745C257.237 132.896 253.684 129.851 249.499 127.975C245.314 126.1 240.676 125.475 236.145 126.176C231.613 126.877 227.381 128.874 223.958 131.926C222.431 133.292 220.541 134.187 218.516 134.503C216.491 134.818 214.419 134.541 212.548 133.704C210.677 132.868 209.089 131.508 207.974 129.788C206.86 128.069 206.267 126.064 206.267 124.015V80.0546L139.272 80.0546C137.201 80.0542 135.175 79.448 133.445 78.3106C131.714 77.1733 130.354 75.5545 129.531 73.6536C128.709 71.7528 128.461 69.653 128.817 67.6128C129.174 65.5727 130.119 63.6814 131.537 62.1719C134.718 58.7935 136.841 54.5577 137.644 49.9871C138.446 45.4166 137.893 40.7111 136.053 36.451C134.213 32.1909 131.166 28.5626 127.289 26.0135C123.411 23.4645 118.872 22.1062 114.231 22.1062C109.591 22.1062 105.052 23.4645 101.174 26.0135C97.2965 28.5626 94.2497 32.1909 92.4096 36.451C90.5696 40.7111 90.0166 45.4166 90.8191 49.9871C91.6216 54.5577 93.7443 58.7935 96.9255 62.1719C98.3435 63.6814 99.2889 65.5727 99.6453 67.6128C100.002 69.653 99.7536 71.7528 98.9314 73.6536C98.1092 75.5545 96.749 77.1733 95.0182 78.3106C93.2874 79.448 91.2618 80.0542 89.1907 80.0546L22.168 80.0546L22.168 105.785C25.4658 105.041 28.8361 104.666 32.2168 104.667C38.5488 104.674 44.8081 106.017 50.5855 108.609C56.3629 111.2 61.5283 114.982 65.7441 119.706C69.96 124.431 73.1313 129.992 75.0508 136.026C76.9703 142.06 77.5947 148.431 76.8833 154.723C76.1719 161.015 74.1407 167.086 70.9223 172.539C67.704 177.992 63.3711 182.705 58.2069 186.369C53.0426 190.033 47.1632 192.566 40.953 193.802C34.7428 195.038 28.3417 194.95 22.168 193.542L22.168 264.146H70.5155C68.8883 257.52 68.789 250.611 70.2252 243.941C71.6614 237.271 74.5955 231.015 78.8055 225.646C83.0155 220.277 88.3912 215.936 94.5261 212.95C100.661 209.965 107.394 208.413 114.217 208.413C121.04 208.413 127.773 209.965 133.908 212.95C140.043 215.936 145.419 220.277 149.629 225.646C153.839 231.015 156.773 237.271 158.209 243.941C159.645 250.611 159.546 257.52 157.919 264.146Z" fill="url(#paint0_linear)"/>
<defs>
<linearGradient id="paint0_linear" x1="-17.8433" y1="18.2475" x2="234.439" y2="354.034" gradientUnits="userSpaceOnUse">
<stop stop-color="#0485E1"/>
<stop offset="1" stop-color="#00D1FF"/>
</linearGradient>
</defs>
</svg>
